<?xml version="1.0" standalone="no"?><!DOCTYPE svg PUBLIC "-//W3C//DTD SVG 1.1//EN" "http://www.w3.org/Graphics/SVG/1.1/DTD/svg11.dtd"><svg t="1584968175899" class="icon" viewBox="0 0 1024 1024" version="1.1" xmlns="http://www.w3.org/2000/svg" p-id="3522" xmlns:xlink="http://www.w3.org/1999/xlink" width="128" height="128"><defs><style type="text/css"></style></defs><path d="M368.284317 314.359466c-4.68799 0-9.405979-1.531997-13.34397-4.687989-9.18798-7.389984-10.639977-20.811954-3.265993-29.999934 31.093931-38.733915 99.387781-34.061925 107.075764-33.405927 11.733974 1.015998 20.435955 11.343975 19.419957 23.07795-0.999998 11.733974-11.327975 20.419955-23.045949 19.435957-13.67197-1.109998-55.827877-0.265999-70.185846 17.609961a21.283953 21.283953 0 0 1-16.653963 7.969982z" fill="#434A54" p-id="3523"></path><path d="M373.190306 288.141524c-41.499908-106.605765-142.887685-105.683767-215.307524-33.263927-72.37384 72.37384-68.06185 204.759548 13.077971 235.493481 30.733932 81.185821 163.12164 85.467811 235.49348 13.077971 72.41984-72.41984 73.341838-173.807616-33.263927-215.307525z" fill="#ED5564" p-id="3524"></path><path d="M693.2096 152.253824a21.283953 21.283953 0 0 1-16.715963-8.077982c-1.343997-1.687996-13.217971-17.171962-18.28196-41.357909-4.74999-22.59195-4.37599-57.341873 24.311947-94.513791 7.215984-9.311979 20.591955-11.045976 29.935934-3.841992 9.311979 7.201984 11.031976 20.591955 3.843991 29.919934-15.061967 19.499957-20.561955 39.577913-16.343964 59.685868 2.967993 14.139969 9.905978 23.513948 9.967978 23.591948 7.311984 9.23398 5.749987 22.65595-3.467992 29.983934a21.339953 21.339953 0 0 1-13.249971 4.60999z" fill="#A0D468" p-id="3525"></path><path d="M713.273556 454.575157l76.561831-25.311944 80.371822-26.561942c95.749789-31.65593 28.405937-352.381222-49.903889-326.491279L558.777897 162.675801c-78.621826 25.983943 58.467871 323.649286 154.495659 291.899356z" fill="#E9573F" p-id="3526"></path><path d="M845.239265 210.173696c-15.561966-47.123896-33.809925-125.885722-79.997824-125.885722-4.74999 0-9.749978 0.827998-15.093967 2.593994L621.151759 129.519874c-57.561873 19.031958-25.623943 86.30981-2.687994 155.653657 21.561952 65.185856 81.68382 169.635626 125.995722 169.635625 2.843994 0 5.593988-0.421999 8.281982-1.311997l84.841812-28.045938c44.747901-14.795967 24.841945-163.33964 7.655984-215.277525z" fill="#FC6E51" p-id="3527"></path><path d="M874.6432 597.370842H149.3348c-11.781974 0-21.327953 9.531979-21.327953 21.309953v63.999858c0 141.963687 77.841828 271.8034 203.151552 338.803253a21.287953 21.287953 0 0 0 10.061978 2.499994h341.553246c3.497992 0 6.965985-0.843998 10.059978-2.499994 125.309723-66.999852 203.151552-196.839566 203.151552-338.803253v-63.999858c0.002-11.779974-9.559979-21.309953-21.341953-21.309953z" fill="#A0D468" p-id="3528"></path><path d="M874.6432 597.370842h-42.653906c11.781974 0 21.343953 9.531979 21.343953 21.309953v63.999858c0 141.963687-77.873828 271.8034-203.183552 338.803253a21.245953 21.245953 0 0 1-10.059978 2.499994h42.685906c3.497992 0 6.965985-0.843998 10.059978-2.499994 125.309723-66.999852 203.151552-196.839566 203.151552-338.803253v-63.999858c0-11.779974-9.561979-21.309953-21.343953-21.309953z" fill="#FFFFFF" opacity=".2" p-id="3529"></path></svg>